<?xml version="1.0" encoding="utf-8"?>
<svg version="1.1" id="Layer_1"
xmlns="http://www.w3.org/2000/svg"
xmlns:xlink="http://www.w3.org/1999/xlink"
width="351px" height="256px"
xml:space="preserve">
<g id="PathID_1" transform="matrix(0.795911, 0, 0, 0.706983, 120.4, 172.9)" opacity="1">
<path style="fill:#006DA1;fill-opacity:1" d="M71.85 -28.85L71.85 28.85L-71.85 28.85L-71.85 -28.85L71.85 -28.85" />
</g>
<g id="PathID_2" transform="matrix(0.795911, 0, 0, 0.706983, 120.4, 172.9)" opacity="1">
</g>
<g id="PathID_3" transform="matrix(0.795911, 0, 0, 0.706983, 230.8, 172.9)" opacity="1">
<path style="fill:#00ACFF;fill-opacity:1" d="M-66.8 -28.85L66.8 -28.85L66.8 28.85L-66.8 28.85L-66.8 -28.85" />
</g>
<g id="PathID_4" transform="matrix(0.795911, 0, 0, 0.706983, 230.8, 172.9)" opacity="1">
</g>
<g id="PathID_5" transform="matrix(0.346046, 0, 0, 0.346046, 183.95, 178.2)" opacity="1">
<path style="fill:#FFFFFF;fill-opacity:1" d="M27.1 -35.75L27.1 -32L15.85 -32L15.85 0L11.25 0L11.25 -32L0 -32L0 -35.75L27.1 -35.75" />
</g>
<g id="PathID_6" transform="matrix(0.346046, 0, 0, 0.346046, 183.95, 178.2)" opacity="1">
</g>
<g id="PathID_7" transform="matrix(0.346046, 0, 0, 0.346046, 192, 178.2)" opacity="1">
<path style="fill:#FFFFFF;fill-opacity:1" d="M24.8 -11.8L7.1 -11.8Q7.1 -3.75 17.25 -3.75Q20.75 -3.75 24.2 -4.5L24.2 -0.75Q20.75 0 15.75 0Q2.5 0 2.5 -13.4Q2.5 -26.25 15.05 -26.25Q27.1 -26.25 24.8 -11.8M7.1 -15.65L20.55 -15.65Q20.9 -22.55 14.3 -22.55Q7.55 -22.55 7.1 -15.65" />
</g>
<g id="PathID_8" transform="matrix(0.346046, 0, 0, 0.346046, 192, 178.2)" opacity="1">
</g>
<g id="PathID_9" transform="matrix(0.346046, 0, 0, 0.346046, 201.8, 178.2)" opacity="1">
<path style="fill:#FFFFFF;fill-opacity:1" d="M23.75 -0.75Q20.5 0 16.75 0Q2.5 0 2.5 -13.6Q2.5 -26.25 16.75 -26.25Q20.5 -26.25 23.75 -25.5L23.75 -21.75Q20.5 -22.5 17.25 -22.5Q7.1 -22.5 7.1 -13.6Q7.1 -3.75 17.25 -3.75Q20.5 -3.75 23.75 -4.5L23.75 -0.75" />
</g>
<g id="PathID_10" transform="matrix(0.346046, 0, 0, 0.346046, 201.8, 178.2)" opacity="1">
</g>
<g id="PathID_11" transform="matrix(0.346046, 0, 0, 0.346046, 210.65, 178.2)" opacity="1">
<path style="fill:#FFFFFF;fill-opacity:1" d="M3.75 0L3.75 -35.75L8.35 -35.75L8.35 -23.4Q12.45 -26.25 17.3 -26.25Q26.35 -26.25 26.35 -16.45L26.35 0L21.75 0L21.75 -16.55Q21.75 -22.4 15.9 -22.4Q11.95 -22.4 8.35 -19.05L8.35 0L3.75 0" />
</g>
<g id="PathID_12" transform="matrix(0.346046, 0, 0, 0.346046, 210.65, 178.2)" opacity="1">
</g>
<g id="PathID_13" transform="matrix(0.346046, 0, 0, 0.346046, 221.1, 178.2)" opacity="1">
<path style="fill:#FFFFFF;fill-opacity:1" d="M3.75 0L3.75 -26.25L6.85 -26.25L7.7 -22.9Q12.45 -26.25 17.3 -26.25Q26.35 -26.25 26.35 -16.45L26.35 0L21.75 0L21.75 -16.55Q21.75 -22.4 15.9 -22.4Q11.95 -22.4 8.35 -19.05L8.35 0L3.75 0" />
</g>
<g id="PathID_14" transform="matrix(0.346046, 0, 0, 0.346046, 221.1, 178.2)" opacity="1">
</g>
<g id="PathID_15" transform="matrix(0.346046, 0, 0, 0.346046, 231.5, 178.2)" opacity="1">
<path style="fill:#FFFFFF;fill-opacity:1" d="M15 -3.75Q22.85 -3.75 22.85 -13.2Q22.85 -22.5 15 -22.5Q7.1 -22.5 7.1 -13.2Q7.1 -3.75 15 -3.75M2.5 -13.1Q2.5 -26.25 15 -26.25Q27.5 -26.25 27.5 -13.1Q27.5 0 15 0Q2.55 0 2.5 -13.1" />
</g>
<g id="PathID_16" transform="matrix(0.346046, 0, 0, 0.346046, 231.5, 178.2)" opacity="1">
</g>
<g id="PathID_17" transform="matrix(0.346046, 0, 0, 0.346046, 241.85, 178.2)" opacity="1">
<path style="fill:#FFFFFF;fill-opacity:1" d="M8.35 -35.75L8.35 0L3.75 0L3.75 -35.75L8.35 -35.75" />
</g>
<g id="PathID_18" transform="matrix(0.346046, 0, 0, 0.346046, 241.85, 178.2)" opacity="1">
</g>
<g id="PathID_19" transform="matrix(0.346046, 0, 0, 0.346046, 246.05, 178.2)" opacity="1">
<path style="fill:#FFFFFF;fill-opacity:1" d="M15 -3.75Q22.85 -3.75 22.85 -13.2Q22.85 -22.5 15 -22.5Q7.1 -22.5 7.1 -13.2Q7.1 -3.75 15 -3.75M2.5 -13.1Q2.5 -26.25 15 -26.25Q27.5 -26.25 27.5 -13.1Q27.5 0 15 0Q2.55 0 2.5 -13.1" />
</g>
<g id="PathID_20" transform="matrix(0.346046, 0, 0, 0.346046, 246.05, 178.2)" opacity="1">
</g>
<g id="PathID_21" transform="matrix(0.346046, 0, 0, 0.346046, 256.4, 178.2)" opacity="1">
<path style="fill:#FFFFFF;fill-opacity:1" d="M21.3 -21.8Q18.9 -22.4 15.4 -22.4Q7.05 -22.4 7.05 -13.3Q7.05 -4 14.95 -4Q18.55 -4 21.3 -5.35L21.3 -21.8M25.9 0Q25.9 9.5 13.85 9.5Q9 9.5 5.25 8.25L5.25 4.5Q9.05 5.75 13.9 5.75Q21.3 5.75 21.3 0L21.3 -1.25Q18.35 0 14.95 0Q2.5 0 2.5 -13.25Q2.5 -26.25 15.6 -26.25Q20.95 -26.25 25.9 -25.15L25.9 0" />
</g>
<g id="PathID_22" transform="matrix(0.346046, 0, 0, 0.346046, 256.4, 178.2)" opacity="1">
</g>
<g id="PathID_23" transform="matrix(0.346046, 0, 0, 0.346046, 266.65, 178.2)" opacity="1">
<path style="fill:#FFFFFF;fill-opacity:1" d="M0.6 -26.25L5.65 -26.25L13.05 -5.75L20.75 -26.25L25.65 -26.25L14.75 0.75Q11.85 7.9 6.05 9.7L4.25 6.4Q8.65 4.5 10.65 0.15L0.6 -26.25" />
</g>
<g id="PathID_24" transform="matrix(0.346046, 0, 0, 0.346046, 266.65, 178.2)" opacity="1">
</g>
<g id="PathID_25" transform="matrix(0.42623, 0, 0, 0.42623, 74.35, 180.05)" opacity="1">
<path style="fill:#FFFFFF;fill-opacity:1" d="M3.75 0L3.75 -35.75L19 -35.75Q29.2 -35.75 29.2 -27.4Q29.2 -21.3 22.55 -18.7Q29.65 -17.35 29.65 -10.55Q29.65 0 18.45 0L3.75 0M18.2 -3.75Q24.6 -3.75 24.6 -10.25Q24.6 -16.55 16 -16.55L14 -16.55L14 -19.6Q24.25 -20.95 24.25 -27Q24.25 -32 18.55 -32L8.35 -32L8.35 -3.75L18.2 -3.75" />
</g>
<g id="PathID_26" transform="matrix(0.42623, 0, 0, 0.42623, 74.35, 180.05)" opacity="1">
</g>
<g id="PathID_27" transform="matrix(0.42623, 0, 0, 0.42623, 88.3, 180.05)" opacity="1">
<path style="fill:#FFFFFF;fill-opacity:1" d="M26.35 -26.25L26.35 0L23.2 0L22.4 -3.35Q17.6 0 12.8 0Q3.75 0 3.75 -9.75L3.75 -26.25L8.35 -26.25L8.35 -9.7Q8.35 -3.85 14.15 -3.85Q18.15 -3.85 21.75 -7.15L21.75 -26.25L26.35 -26.25" />
</g>
<g id="PathID_28" transform="matrix(0.42623, 0, 0, 0.42623, 88.3, 180.05)" opacity="1">
</g>
<g id="PathID_29" transform="matrix(0.42623, 0, 0, 0.42623, 101.1, 180.05)" opacity="1">
<path style="fill:#FFFFFF;fill-opacity:1" d="M3.75 -1.25L3.75 -5.25Q8.1 -3.75 12.85 -3.75Q19.1 -3.75 19.1 -7.5Q19.1 -11 15 -11L10.75 -11Q2.5 -11 2.5 -18.75Q2.5 -26.25 13.4 -26.25Q18.1 -26.25 22.5 -25L22.5 -21Q18.1 -22.5 13.4 -22.5Q6.85 -22.5 6.85 -18.75Q6.85 -15.25 10.75 -15.25L15 -15.25Q23.75 -15.25 23.75 -7.5Q23.75 0 12.85 0Q8.1 0 3.75 -1.25" />
</g>
<g id="PathID_30" transform="matrix(0.42623, 0, 0, 0.42623, 101.1, 180.05)" opacity="1">
</g>
<g id="PathID_31" transform="matrix(0.42623, 0, 0, 0.42623, 112.3, 180.05)" opacity="1">
<path style="fill:#FFFFFF;fill-opacity:1" d="M8.35 -35.75L8.35 -32L3.75 -32L3.75 -35.75L8.35 -35.75M8.35 -26.25L8.35 0L3.75 0L3.75 -26.25L8.35 -26.25" />
</g>
<g id="PathID_32" transform="matrix(0.42623, 0, 0, 0.42623, 112.3, 180.05)" opacity="1">
</g>
<g id="PathID_33" transform="matrix(0.42623, 0, 0, 0.42623, 117.45, 180.05)" opacity="1">
<path style="fill:#FFFFFF;fill-opacity:1" d="M3.75 0L3.75 -26.25L6.85 -26.25L7.7 -22.9Q12.45 -26.25 17.3 -26.25Q26.35 -26.25 26.35 -16.45L26.35 0L21.75 0L21.75 -16.55Q21.75 -22.4 15.9 -22.4Q11.95 -22.4 8.35 -19.05L8.35 0L3.75 0" />
</g>
<g id="PathID_34" transform="matrix(0.42623, 0, 0, 0.42623, 117.45, 180.05)" opacity="1">
</g>
<g id="PathID_35" transform="matrix(0.42623, 0, 0, 0.42623, 130.3, 180.05)" opacity="1">
<path style="fill:#FFFFFF;fill-opacity:1" d="M24.8 -11.8L7.1 -11.8Q7.1 -3.75 17.25 -3.75Q20.75 -3.75 24.2 -4.5L24.2 -0.75Q20.75 0 15.75 0Q2.5 0 2.5 -13.4Q2.5 -26.25 15.05 -26.25Q27.1 -26.25 24.8 -11.8M7.1 -15.65L20.55 -15.65Q20.9 -22.55 14.3 -22.55Q7.55 -22.55 7.1 -15.65" />
</g>
<g id="PathID_36" transform="matrix(0.42623, 0, 0, 0.42623, 130.3, 180.05)" opacity="1">
</g>
<g id="PathID_37" transform="matrix(0.42623, 0, 0, 0.42623, 142.35, 180.05)" opacity="1">
<path style="fill:#FFFFFF;fill-opacity:1" d="M3.75 -1.25L3.75 -5.25Q8.1 -3.75 12.85 -3.75Q19.1 -3.75 19.1 -7.5Q19.1 -11 15 -11L10.75 -11Q2.5 -11 2.5 -18.75Q2.5 -26.25 13.4 -26.25Q18.1 -26.25 22.5 -25L22.5 -21Q18.1 -22.5 13.4 -22.5Q6.85 -22.5 6.85 -18.75Q6.85 -15.25 10.75 -15.25L15 -15.25Q23.75 -15.25 23.75 -7.5Q23.75 0 12.85 0Q8.1 0 3.75 -1.25" />
</g>
<g id="PathID_38" transform="matrix(0.42623, 0, 0, 0.42623, 142.35, 180.05)" opacity="1">
</g>
<g id="PathID_39" transform="matrix(0.42623, 0, 0, 0.42623, 153.5, 180.05)" opacity="1">
<path style="fill:#FFFFFF;fill-opacity:1" d="M3.75 -1.25L3.75 -5.25Q8.1 -3.75 12.85 -3.75Q19.1 -3.75 19.1 -7.5Q19.1 -11 15 -11L10.75 -11Q2.5 -11 2.5 -18.75Q2.5 -26.25 13.4 -26.25Q18.1 -26.25 22.5 -25L22.5 -21Q18.1 -22.5 13.4 -22.5Q6.85 -22.5 6.85 -18.75Q6.85 -15.25 10.75 -15.25L15 -15.25Q23.75 -15.25 23.75 -7.5Q23.75 0 12.85 0Q8.1 0 3.75 -1.25" />
</g>
<g id="PathID_40" transform="matrix(0.42623, 0, 0, 0.42623, 153.5, 180.05)" opacity="1">
</g>
<g id="PathID_41" transform="matrix(0.882348, 0, 0, 0.882348, 169.6, 105.8)" opacity="1">
<path style="fill:#72CFFC;fill-opacity:1" d="M35.8 -3.2Q33.9 17.1 19.95 32.1L11.8 33.45L0.2 34.3L-11.65 33.55Q-21.25 32.05 -30.5 28.7L-31.4 27.7Q-34.3 24.05 -35.65 19.7L-36 18.45Q-17.2 25.4 1.55 17.95Q20.8 10.4 28.45 -8.65Q33.65 -21.6 27.65 -34.25Q37.5 -20.2 35.8 -3.2" />
</g>
<g id="PathID_42" transform="matrix(0.882348, 0, 0, 0.882348, 169.6, 105.8)" opacity="1">
</g>
<g id="PathID_43" transform="matrix(0.882348, 0, 0, 0.882348, 194.45, 93.9)" opacity="1">
<path style="fill:#006DA1;fill-opacity:1" d="M29.1 -1.3Q27.9 4.35 26.3 9.95Q24.6 15.65 21.95 21Q17.6 29.7 11.55 37.45L10.3 37.95Q6 39.65 1.35 39.55L0.1 39.5Q12.5 23.75 11.25 3.65Q10 -17.05 -5.75 -30.2Q-16.45 -39.15 -30.35 -37.4Q-14 -42.35 1.7 -35.55Q20.4 -27.45 30.35 -9.55Q29.95 -5.35 29.1 -1.3" />
</g>
<g id="PathID_44" transform="matrix(0.882348, 0, 0, 0.882348, 194.45, 93.9)" opacity="1">
</g>
<g id="PathID_45" transform="matrix(0.882348, 0, 0, 0.882348, 182.8, 59.8)" opacity="1">
<path style="fill:#006DA1;fill-opacity:1" d="M29.55 -7.1Q36.5 -0.3 42 7.85L42.1 9.2Q42.35 13.8 40.85 18.2L40.45 19.4Q29.3 2.75 9.75 -2.3Q-10.3 -7.5 -27.7 3.4Q-39.5 10.8 -42.1 24.6Q-41.75 7.45 -30.45 -5.35Q-16.95 -20.6 3.2 -24.55Q7 -22.85 10.55 -20.85L20.4 -14.75Q25.35 -11.3 29.55 -7.1" />
</g>
<g id="PathID_46" transform="matrix(0.882348, 0, 0, 0.882348, 182.8, 59.8)" opacity="1">
</g>
<g id="PathID_47" transform="matrix(0.882348, 0, 0, 0.882348, 152.75, 71.2)" opacity="1">
<path style="fill:#00ACFF;fill-opacity:1" d="M26.9 -37.5Q7.6 -32.05 -3.2 -15.05Q-14.35 2.45 -9.35 22.35Q-5.95 35.85 6.35 42.6Q-9.8 37 -18.5 22.25Q-28.9 4.7 -26.4 -15.65L-20.6 -21.5Q-16.25 -25.45 -11.7 -29Q-6.95 -32.65 -1.65 -35.4Q7 -39.85 16.4 -42.55L17.7 -42.25Q22.2 -41.05 25.9 -38.3L26.9 -37.5" />
</g>
<g id="PathID_48" transform="matrix(0.882348, 0, 0, 0.882348, 152.75, 71.2)" opacity="1">
</g>
<g id="PathID_49" transform="matrix(0.882348, 0, 0, 0.882348, 153.85, 93.9)" opacity="1">
<path style="fill:#40BEFC;fill-opacity:1" d="M-38.9 -23.1L-38.2 -24.25Q-35.65 -28.15 -31.85 -30.85L-30.85 -31.55Q-31.6 -11.5 -18.75 4.05Q-5.6 20.05 14.9 21.45Q28.8 22.35 39 12.75Q28.65 26.4 11.95 30.1Q-7.95 34.55 -26.5 25.9L-30.35 18.6L-34.7 7.8Q-36.65 2.15 -37.65 -3.75Q-39.2 -13.3 -38.9 -23.1" />
</g>
<g id="PathID_50" transform="matrix(0.882348, 0, 0, 0.882348, 153.85, 93.9)" opacity="1">
</g>
</svg>
